<svg width="33" height="29" viewBox="0 0 33 29" fill="none" xmlns="http://www.w3.org/2000/svg">
<path d="M1.825 5.78125H31.075C31.6375 5.78125 32.2 5.28906 32.2 4.65625V1.84375C32.2 1.28125 31.6375 0.71875 31.075 0.71875H1.825C1.19219 0.71875 0.700001 1.28125 0.700001 1.84375V4.65625C0.700001 5.28906 1.19219 5.78125 1.825 5.78125ZM1.825 17.0312H31.075C31.6375 17.0312 32.2 16.5391 32.2 15.9062V13.0938C32.2 12.5312 31.6375 11.9688 31.075 11.9688H1.825C1.19219 11.9688 0.700001 12.5312 0.700001 13.0938V15.9062C0.700001 16.5391 1.19219 17.0312 1.825 17.0312ZM1.825 28.2812H31.075C31.6375 28.2812 32.2 27.7891 32.2 27.1562V24.3438C32.2 23.7812 31.6375 23.2188 31.075 23.2188H1.825C1.19219 23.2188 0.700001 23.7812 0.700001 24.3438V27.1562C0.700001 27.7891 1.19219 28.2812 1.825 28.2812Z" fill="#34313D"/>
</svg>
