<svg width="621" height="400" viewBox="0 0 621 400" fill="none" xmlns="http://www.w3.org/2000/svg">
<g clip-path="url(#clip0_109_24)">
<path d="M493.692 76.5261C475.952 57.9494 462.22 35.7734 441.017 20.6133C407.713 -3.24896 359.782 -5.57593 320.84 9.41494C281.898 24.405 251.562 54.6216 231.567 88.8365C221.049 106.838 212.788 126.475 197.376 141.185C184.347 153.613 167.223 161.543 150.987 170.179C124.81 184.066 99.601 200.845 82.6605 223.868C65.7218 246.891 58.1481 277.129 68.9766 303.076C76.2787 320.584 90.987 334.515 106.055 347.127C123.787 361.956 142.845 375.841 164.841 384.677C192.377 395.67 222.945 398.033 252.921 399.152C306.064 401.127 359.291 399.651 412.209 394.734C455.541 390.715 500.185 383.852 536.44 361.639C587.227 330.532 613.412 273.537 619.307 217.647C621.706 195.294 621.099 172.064 611.725 151.324C589.307 101.714 528.819 113.317 493.691 76.5261H493.692Z" fill="#EFF1F7"/>
<path d="M151.327 167.912C151.327 167.912 137.287 165.466 133.353 175.106C129.42 184.746 133.353 218.038 133.353 218.038L185.739 254.772L151.327 167.912Z" fill="#3F3D56"/>
<path d="M217.206 315.126L196.436 320.942C193.418 321.78 190.253 320.152 189.355 317.302C188.469 314.449 190.19 311.455 193.203 310.606L213.945 304.785C216.96 303.947 220.125 305.571 221.026 308.419C221.921 311.268 220.214 314.266 217.206 315.126Z" fill="#2BD0D0"/>
<path d="M216.189 336.93C221.327 336.93 225.493 332.842 225.493 327.801C225.493 322.759 221.327 318.672 216.189 318.672C211.05 318.672 206.885 322.759 206.885 327.801C206.885 332.842 211.05 336.93 216.189 336.93Z" fill="#25233A"/>
<path d="M214.92 334.44C217.489 334.44 219.572 332.396 219.572 329.876C219.572 327.355 217.489 325.311 214.92 325.311C212.351 325.311 210.268 327.355 210.268 329.876C210.268 332.396 212.351 334.44 214.92 334.44Z" fill="#3F3D56"/>
<path d="M178.126 327.801C183.265 327.801 187.43 323.714 187.43 318.672C187.43 313.631 183.265 309.544 178.126 309.544C172.988 309.544 168.822 313.631 168.822 318.672C168.822 323.714 172.988 327.801 178.126 327.801Z" fill="#25233A"/>
<path d="M181.51 319.087C181.51 320.298 181.019 321.459 180.147 322.315C179.275 323.171 178.091 323.651 176.857 323.651C175.624 323.651 174.44 323.171 173.568 322.315C172.695 321.459 172.205 320.298 172.205 319.087C172.205 317.877 172.695 316.716 173.568 315.86C174.44 315.004 175.624 314.523 176.857 314.523C178.091 314.523 179.275 315.004 180.147 315.86C181.019 316.716 181.51 317.877 181.51 319.087Z" fill="url(#paint0_linear_109_24)"/>
<path d="M175.589 340.249C180.727 340.249 184.893 336.162 184.893 331.12C184.893 326.079 180.727 321.992 175.589 321.992C170.45 321.992 166.284 326.079 166.284 331.12C166.284 336.162 170.45 340.249 175.589 340.249Z" fill="#25233A"/>
<path d="M183.201 331.535C183.201 332.746 182.711 333.907 181.839 334.763C180.966 335.619 179.783 336.1 178.549 336.1C177.315 336.1 176.132 335.619 175.26 334.763C174.387 333.907 173.897 332.746 173.897 331.535C173.897 330.325 174.387 329.164 175.26 328.308C176.132 327.452 177.315 326.971 178.549 326.971C179.783 326.971 180.966 327.452 181.839 328.308C182.711 329.164 183.201 330.325 183.201 331.535Z" fill="#3F3D56"/>
<path d="M217.952 324.377L174.995 316.04C171.972 315.445 170.018 312.612 170.624 309.703C171.243 306.798 174.184 304.92 177.208 305.499L220.166 313.82C223.189 314.415 225.143 317.247 224.537 320.158C223.926 323.068 220.981 324.955 217.952 324.377Z" fill="#2BD0D0"/>
<path d="M191.66 257.261H203.501V306.224C203.501 309.432 200.851 312.033 197.583 312.033C196.013 312.033 194.508 311.42 193.398 310.331C192.289 309.241 191.665 307.764 191.665 306.224V257.261H191.66Z" fill="#2BD0D0"/>
<path d="M196.047 320.919L175.293 326.749C172.275 327.591 169.106 325.962 168.209 323.108C167.323 320.253 169.044 317.257 172.056 316.407L192.81 310.594C195.824 309.756 198.988 311.381 199.888 314.23C200.767 317.08 199.051 320.067 196.047 320.919V320.919Z" fill="#2BD0D0"/>
<path d="M200.118 320.548L197.475 321.005C196.672 321.142 195.856 321.189 195.043 321.148L196.147 320.959C196.878 320.839 197.591 320.628 198.267 320.332L200.118 320.548Z" fill="url(#paint1_linear_109_24)"/>
<path d="M221.264 309.326C221.266 310.607 220.832 311.852 220.029 312.863L202.656 309.253C203.095 308.636 203.41 307.943 203.584 307.21L214.287 303.954C214.977 303.75 215.701 303.688 216.416 303.77C217.131 303.853 217.821 304.079 218.443 304.435C219.712 305.154 220.65 306.363 221.051 307.794C221.19 308.292 221.261 308.808 221.264 309.326Z" fill="url(#paint2_linear_109_24)"/>
<path opacity="0.31" d="M191 307.969C190.876 307.543 190.814 307.102 190.814 306.658V258.091H195.841V310.432C195.791 310.689 195.807 310.952 195.889 311.203C195.114 310.94 194.302 310.796 193.482 310.779C192.899 310.746 192.311 310.746 191.726 310.779L192.086 310.696C192.307 310.663 191.29 308.961 191 307.969Z" fill="url(#paint3_linear_109_24)"/>
<path opacity="0.31" d="M222.354 323.485C221.534 323.919 220.611 324.147 219.673 324.146C219.295 324.145 218.919 324.109 218.548 324.038L199.595 320.382L198.016 320.08C197.474 320.478 196.863 320.775 196.212 320.956L195.273 321.219L175.798 326.751C172.825 327.587 169.706 325.968 168.822 323.131C170.511 324.629 173.076 324.768 174.931 323.464C177.309 321.89 186.775 319.528 192.137 318.271C194.671 317.692 196.609 315.74 197.083 313.292C197.097 313.149 197.119 313.005 197.151 312.863C198.044 313.787 199.686 314.823 202.653 315.704C209.961 317.852 221.826 319.275 221.826 319.275C221.826 319.275 223.967 321.284 222.354 323.485Z" fill="url(#paint4_linear_109_24)"/>
<path d="M223.801 321.992C223.348 322.644 222.774 323.207 222.11 323.651C222.68 323.105 223.244 322.551 223.801 321.992Z" fill="url(#paint5_linear_109_24)"/>
<path d="M191.913 307.518C192.15 308.493 192.646 309.39 193.351 310.115C193.174 310.148 192.992 310.192 192.809 310.241L174.817 315.353C172.05 314.678 170.228 312.145 170.551 309.422C170.873 306.7 173.241 304.625 176.096 304.564C176.479 304.565 176.862 304.602 177.238 304.674L191.913 307.518Z" fill="url(#paint6_linear_109_24)"/>
<path d="M219.572 74.1967C219.572 74.1967 219.339 56.9311 205.13 58.4208C190.919 59.9087 192.01 54.1925 185.94 54.8199C179.871 55.4481 172.821 61.2813 174.845 68.4863C176.871 75.6913 169.489 77.3021 164.641 82.7685C159.792 88.2349 165.782 92.7071 173.95 98.0515C182.118 103.396 173.443 102.012 178.285 110.462C183.128 118.911 199.522 108.118 199.522 108.118L219.572 74.1967Z" fill="#503164"/>
<path d="M104.254 360.665L114.176 360.996V283.199C114.176 283.199 114.675 263.082 134.012 261.064C153.349 259.046 328.721 234.121 328.721 234.121C328.721 234.121 335.672 233.399 339.676 246.487C343.679 259.575 347.576 311.041 347.576 311.041L401.405 318.159C401.405 318.159 402.826 227.246 383.387 222.229C363.949 217.212 109.739 242.777 109.739 242.777C109.739 242.777 90.8855 339.334 104.254 360.665Z" fill="#2BD0D0"/>
<path opacity="0.197" d="M104.254 360.665L114.176 360.996V283.199C114.176 283.199 114.675 263.082 134.012 261.064C153.349 259.046 328.721 234.121 328.721 234.121C328.721 234.121 335.672 233.399 339.676 246.487C343.679 259.575 347.576 311.041 347.576 311.041L401.405 318.159C401.405 318.159 402.826 227.246 383.387 222.229C363.949 217.212 109.739 242.777 109.739 242.777C109.739 242.777 90.8855 339.334 104.254 360.665Z" fill="url(#paint7_linear_109_24)"/>
<path d="M52.942 252.103C52.942 252.103 57.8005 225.749 91.9724 218.842L333.191 191.753C333.191 191.753 356.871 190.79 367.705 197.219C378.538 203.647 394 208.977 400.34 238.068C406.68 267.16 408.194 316.858 408.194 316.858L402.197 317.771C402.197 317.771 393.445 227.779 384.171 222.081C374.898 216.384 124.158 251.339 124.158 251.339C124.158 251.339 106.767 254.731 105.252 279.996C103.738 305.26 105.252 360.166 105.252 360.166L52.942 339.466V252.103Z" fill="#2BD0D0"/>
<path opacity="0.19" d="M301.132 202.36C288.646 200.783 276.058 199.641 263.476 200.103C254.02 200.462 244.626 201.734 235.249 203.002L152.547 214.207C151.143 214.398 149.544 214.708 148.842 215.904C147.496 218.188 150.661 220.438 153.226 221.308C180.724 230.649 210.102 240.11 238.408 233.449C251.35 230.404 263.37 224.081 276.496 221.885C289.622 219.688 303.096 221.71 316.194 219.639C328.507 217.693 340.23 212.163 352.711 212.109C356.538 212.109 360.478 212.588 364.108 211.412C367.74 210.238 370.95 206.65 369.945 203.072C358.227 202.676 345.074 200.577 333.58 202.855C322.205 205.105 312.524 202.36 301.132 202.36Z" fill="url(#paint8_linear_109_24)"/>
<path d="M226.339 215.253L226.821 217.007C226.821 217.007 241.1 225.45 241.01 225.722C240.92 225.994 300.239 212.245 300.239 212.245L301.619 208.299L226.339 215.253Z" fill="#2BD0D0"/>
<path d="M226.339 215.253L226.821 217.007C226.821 217.007 241.1 225.45 241.01 225.722C240.92 225.994 300.239 212.245 300.239 212.245L301.619 208.299L226.339 215.253Z" fill="url(#paint9_linear_109_24)"/>
<path d="M227.185 215.24L279.717 204.149L301.619 208.344L241.938 222.407L227.185 215.24Z" fill="#2BD0D0"/>
<path d="M227.185 215.24L279.717 204.149L301.619 208.344L241.938 222.407L227.185 215.24Z" fill="url(#paint10_linear_109_24)"/>
<path d="M210.126 224.468L222.354 224.893C222.354 224.893 225.46 225.082 226.262 222.638C227.066 220.194 221.28 215.037 220.661 214.939C220.041 214.842 203.947 219.271 206.267 223.7L210.126 224.468Z" fill="#2BD0D0"/>
<path d="M210.126 224.468L222.354 224.893C222.354 224.893 225.46 225.082 226.262 222.638C227.066 220.194 221.28 215.037 220.661 214.939C220.041 214.842 203.947 219.271 206.267 223.7L210.126 224.468Z" fill="url(#paint11_linear_109_24)"/>
<path d="M67.3212 345.275L61.3513 363.264C44.0345 369.364 29.3109 363.264 29.3109 363.264L25.0293 344.398C25.0293 344.398 46.6278 351.502 67.3212 345.275Z" fill="#2BD0D0"/>
<path d="M67.3212 345.275L61.3513 363.264C44.0345 369.364 29.3109 363.264 29.3109 363.264L25.0293 344.398C25.0293 344.398 46.6278 351.502 67.3212 345.275Z" fill="url(#paint12_linear_109_24)"/>
<path d="M74.0879 328.631L72.156 342.691L67.262 345.188C46.4138 351.345 24.619 344.326 24.619 344.326L20.861 341.602L19.1084 328.631H74.0879Z" fill="#2BD0D0"/>
<path d="M74.0879 328.631L72.156 342.691L67.262 345.188C46.4138 351.345 24.619 344.326 24.619 344.326L20.861 341.602L19.1084 328.631H74.0879Z" fill="url(#paint13_linear_109_24)"/>
<path d="M46.5982 332.78C61.7803 332.78 74.0879 330.551 74.0879 327.801C74.0879 325.051 61.7803 322.822 46.5982 322.822C31.416 322.822 19.1084 325.051 19.1084 327.801C19.1084 330.551 31.416 332.78 46.5982 332.78Z" fill="#2BD0D0"/>
<path d="M46.5982 332.78C61.7803 332.78 74.0879 330.551 74.0879 327.801C74.0879 325.051 61.7803 322.822 46.5982 322.822C31.416 322.822 19.1084 325.051 19.1084 327.801C19.1084 330.551 31.416 332.78 46.5982 332.78Z" fill="url(#paint14_linear_109_24)"/>
<path d="M34.0298 219.942C31.3383 218.685 28.4447 217.736 26.1161 215.9C21.4243 212.166 20.235 205.736 18.7658 199.968C17.2974 194.2 14.4546 187.858 8.6631 186.203C6.49606 185.592 3.95431 185.834 2.30662 187.357C0.570108 188.961 0.217393 191.598 0.692755 193.925C1.16727 196.251 2.32353 198.336 3.21758 200.542C5.30461 205.669 5.93941 211.254 5.05475 216.705C4.3231 221.178 2.57475 225.71 3.69717 230.095C5.602 237.534 15.0906 241.895 15.3528 249.561C15.5322 254.734 11.2209 259.52 12.1979 264.611C12.9185 268.377 16.4313 271.316 16.6216 275.144C16.8331 279.484 12.6783 283.156 12.8796 287.496C13.0801 291.837 17.47 294.737 20.3357 298.151C22.7397 301.023 24.1674 304.561 24.4185 308.27C24.5691 310.586 24.2671 312.985 25.0326 315.18C25.5909 316.784 26.7074 318.147 27.5735 319.592C28.5293 321.152 29.2491 322.84 30.3995 324.285C31.839 326.082 33.7977 327.412 36.0197 328.101C38.2416 328.79 40.6236 328.805 42.8545 328.144C43.7426 322.377 42.9661 316.493 43.2122 310.663C43.6978 299.369 48.0259 287.988 45.2558 277.024C44.2399 273.004 42.2852 269.188 41.9384 265.063C41.6314 261.378 42.6252 257.729 43.318 254.095C44.7474 246.589 44.7254 238.83 44.1384 231.242C43.6758 225.22 39.3857 222.446 34.0298 219.942Z" fill="#2BD0D0"/>
<path d="M51.0405 249.599C50.9957 254.63 52.1655 259.832 50.5229 264.607C49.2795 268.227 46.5457 271.192 45.134 274.751C41.8776 282.966 46.259 292.178 45.3649 300.95C44.9928 304.563 43.7274 308.035 42.9289 311.583C41.9369 316.075 41.6938 320.696 42.2091 325.264C42.1568 326.096 42.4125 326.919 42.9292 327.581C43.4459 328.243 44.1889 328.7 45.0215 328.867C47.7779 329.897 50.6329 330.652 53.5434 331.12C52.5594 325.801 53.596 320.313 56.4573 315.693C60.9182 308.531 69.5864 303.705 71.2003 295.478C72.2914 289.908 69.7496 284.255 69.9298 278.586C70.0597 274.813 71.3848 271.173 73.7209 268.173C75.8185 265.495 78.6597 263.423 80.6119 260.646C85.3029 253.952 83.8405 245.004 82.4457 236.999C81.05 228.993 80.2406 219.781 85.7529 213.715C87.497 211.798 89.769 210.359 91.3498 208.31C94.8711 203.743 93.9821 196.706 89.8865 192.624C85.7927 188.541 79.1994 187.412 73.6312 189.208C71.2829 189.885 69.2095 191.267 67.7019 193.159C64.8894 197.071 66.0144 202.415 67.207 207.065C68.2474 211.104 69.0857 215.764 67.663 219.837C66.5997 222.866 63.9049 224.509 61.6152 226.618C58.3713 229.557 55.7634 233.106 53.9467 237.054C52.1299 241.002 51.1416 245.269 51.0405 249.599Z" fill="#2BD0D0"/>
<path d="M45.3819 294.209C44.5885 299.681 43.4433 305.196 43.2081 310.683V311.235C43.196 311.371 43.1644 311.505 43.1142 311.632C42.1231 316.129 41.8758 320.753 42.3817 325.326C42.4122 326.067 42.6025 326.793 42.94 327.456C42.9129 327.687 42.8791 327.913 42.8461 328.144C40.6145 328.805 38.2318 328.79 36.0092 328.101C33.7865 327.412 31.8271 326.082 30.3869 324.284C29.2704 322.839 28.515 321.151 27.5601 319.591C26.666 318.14 25.5766 316.778 25.0183 315.178C24.2529 312.972 24.554 310.584 24.4034 308.268C24.1526 304.559 22.7246 301.02 20.3197 298.147C17.4532 294.755 13.0565 291.91 12.8611 287.497C12.6657 283.085 16.8162 279.484 16.6039 275.143C16.4145 271.315 12.9 268.376 12.1802 264.609C11.2016 259.518 15.5314 254.731 15.336 249.558C15.0738 241.891 5.58181 237.529 3.67614 230.089C2.55963 225.704 4.30206 221.17 5.03371 216.698C5.92279 211.253 5.29562 205.673 3.21854 200.549C2.32449 198.343 1.16823 196.264 0.692865 193.93C0.218349 191.598 0.570218 188.967 2.30757 187.356C3.98402 185.834 6.49786 185.592 8.66574 186.203C14.4648 187.858 17.2967 194.223 18.7718 199.992C20.247 205.761 21.4311 212.186 26.1239 215.925C28.4432 217.773 31.3478 218.71 34.0409 219.968C39.4035 222.472 43.6945 225.246 44.1529 231.213C44.7112 238.803 44.7619 246.563 43.3325 254.069C42.6389 257.704 41.656 261.355 41.952 265.039C42.2481 268.724 43.8738 272.209 44.9353 275.783C45.0529 276.185 45.1696 276.593 45.2703 277.002C46.6786 282.677 46.2261 288.418 45.3819 294.209Z" fill="#30C59B"/>
<path d="M42.5534 326.971C42.2978 326.31 42.1544 325.613 42.1288 324.906C41.7651 320.458 41.9461 315.96 42.6676 311.589C42.6871 311.461 42.7116 311.332 42.7353 311.203C42.5907 316.47 43.0516 321.779 42.5534 326.971Z" fill="url(#paint15_linear_109_24)"/>
<path d="M91.3372 208.31C89.7546 210.36 87.4785 211.798 85.7318 213.715C80.211 219.776 81.0222 228.993 82.4195 236.999C83.816 245.004 85.281 253.952 80.5823 260.646C78.6285 263.402 75.7831 265.495 73.6811 268.173C71.3416 271.171 70.014 274.812 69.8833 278.586C69.704 284.255 72.25 289.908 71.1572 295.478C69.5408 303.705 60.8591 308.542 56.3913 315.694C53.5369 320.316 52.5066 325.804 53.4952 331.12C50.5877 330.652 47.7358 329.897 44.9827 328.867C44.2303 328.649 43.5477 328.244 43 327.693C42.9222 327.603 42.8524 327.508 42.7911 327.407C42.442 326.751 42.2404 326.029 42.1999 325.29C41.6932 320.721 41.9461 316.101 42.9493 311.611C42.9772 311.478 43.011 311.346 43.0449 311.214C43.845 307.803 45.0283 304.459 45.3887 300.977C45.5803 298.719 45.535 296.448 45.2533 294.2C46.1043 288.415 46.5602 282.68 45.1239 277.048C45.0224 276.641 44.904 276.233 44.7856 275.831C44.893 275.478 45.0165 275.125 45.1578 274.778C46.572 271.219 49.31 268.256 50.5542 264.635C52.1943 259.858 51.0279 254.657 51.0727 249.627C51.1463 240.938 55.1522 232.548 61.5856 226.618C63.8779 224.509 66.5769 222.867 67.6418 219.837C69.0671 215.764 68.2052 211.104 67.1851 207.065C65.9857 202.415 64.8472 197.071 67.6816 193.159C69.0899 191.219 71.3103 189.958 73.6194 189.208C79.174 187.412 85.8054 188.541 89.9009 192.624C93.9965 196.707 94.8643 203.769 91.3372 208.31Z" fill="#30C59B"/>
<path d="M191.298 121.283C191.298 121.283 167.77 124.851 156.886 150.31C146.003 175.768 151.662 207.308 151.853 210.083C152.043 212.858 185.202 224.896 194.682 224.896C204.162 224.896 206.136 215.578 206.136 215.578L189.386 208.579L240.28 202.812H249.419L244.385 211.138C244.385 211.138 254.318 212.159 260.957 212.392C267.595 212.625 272.103 199.744 272.847 193.339C273.591 186.934 243.524 130.718 239.032 127.388C234.541 124.058 222.355 115.922 191.298 121.283Z" fill="#2BD0D0"/>
<path d="M219.058 73.673C219.058 73.673 223.314 76.0216 222.932 83.6191C222.549 91.2166 220.149 102.65 217.727 105.611C215.305 108.573 206.833 109.734 206.833 109.734C206.833 109.734 211.455 120.503 214.894 123.282C218.333 126.061 211.438 136.3 204.731 132.941C198.025 129.581 190.25 121.144 190.25 121.144C190.25 121.144 195.843 110.982 193.952 105.633C192.061 100.285 184.84 81.5137 190.25 76.3867C195.66 71.2581 207.324 63.9096 219.058 73.673Z" fill="url(#paint16_linear_109_24)"/>
<path opacity="0.25" d="M181.792 157.676L178.126 202.535L189.323 208.299L198.426 206.74L187.068 193.044L181.792 157.676ZM240.718 155.187C240.718 155.187 255.866 190.105 249.151 202.49L243.978 201.527L240.718 155.187Z" fill="white"/>
<path d="M199.714 214.145C199.714 214.145 193.991 218.938 196.545 222.666C199.1 226.393 202.149 226.286 204.691 224.62C207.234 222.953 212.229 218.997 218.179 220.812C224.13 222.628 225.575 223.783 225.575 223.783C225.575 223.783 228.709 221.861 227.896 219.934C227.082 218.006 220.859 211.759 219.055 210.95C217.252 210.141 209.766 212.627 209.766 212.627C209.766 212.627 204.265 211.168 199.714 214.145Z" fill="url(#paint17_linear_109_24)"/>
<path d="M250.184 203.816C250.184 203.816 244.783 204.446 243.419 207.929C242.055 211.413 241.564 211.838 241.564 211.838C241.564 211.838 244.614 212.411 245.883 210.789C247.152 209.168 248.47 209.849 248.47 209.849L248.092 211.929C248.092 211.929 256.38 213.155 260.123 211.838C263.866 210.52 265.473 208.973 265.473 208.973L266.939 205.454C266.939 205.454 263.404 202.939 260.738 202.549C258.071 202.159 250.184 203.816 250.184 203.816Z" fill="url(#paint18_linear_109_24)"/>
<path d="M278.69 240.664C278.69 240.664 297.243 254.512 295.594 273.244C293.945 291.976 291.523 319.789 291.523 319.789C291.523 319.789 284.04 322.878 279.083 319.789C274.125 316.7 271.123 274.437 268.666 270.401C266.21 266.364 251.432 248.168 235.643 246.601L278.69 240.664Z" fill="#25233A"/>
<path d="M185.739 253.99C185.739 253.99 194.573 262.202 210.321 264.78C226.069 267.358 233.409 269.51 238.222 282.71C243.035 295.909 247.652 324.317 249.163 327.492C250.674 330.667 257.099 329.047 257.099 329.047C257.099 329.047 260.733 324.985 260.733 302.397C260.733 270.906 262.978 264.451 254.885 256.541C246.792 248.63 239.43 246.473 239.43 246.473L185.739 253.99Z" fill="#3F3D56"/>
<path d="M249.177 328.631L250.716 340.412H253.599C253.599 340.412 272.163 341.398 272.745 340.973C273.327 340.547 271.851 331.642 264.818 331.894C257.784 332.146 257.323 330.215 257.323 330.215L249.177 328.631ZM280.473 320.461L283.448 331.95L315.96 327.625C315.96 327.625 317.104 320.079 306.805 320.827C304.087 321.022 302.062 322.873 298.794 322.89C295.527 322.906 292.397 321.609 290.75 319.502L280.473 320.461Z" fill="#25233A"/>
<path d="M391.112 176.213L270.797 182.565C267.887 182.715 265.404 180.515 265.248 177.647V93.3386C265.25 89.9353 268.011 87.1577 271.463 87.0855L391.285 84.6481C392.047 84.633 392.804 84.7658 393.513 85.0388C394.223 85.3119 394.87 85.7197 395.418 86.239C396.528 87.2907 397.168 88.7311 397.198 90.2448V169.889C397.194 173.255 394.522 176.032 391.112 176.213Z" fill="#2BD0D0"/>
<path d="M397.879 176.213L277.558 182.566C274.648 182.713 272.168 180.51 272.014 177.642V93.3386C272.011 89.9345 274.772 87.1544 278.224 87.0855L398.063 84.6481C401.258 84.5901 403.898 87.0905 403.965 90.2398V169.889C403.961 173.256 401.289 176.032 397.879 176.213Z" fill="#2BD0D0"/>
<path d="M397.879 176.213L277.558 182.566C274.648 182.713 272.168 180.51 272.014 177.642V93.3386C272.011 89.9345 274.772 87.1544 278.224 87.0855L398.063 84.6481C401.258 84.5901 403.898 87.0905 403.965 90.2398V169.889C403.961 173.256 401.289 176.032 397.879 176.213Z" fill="url(#paint19_linear_109_24)"/>
<path d="M362.327 208.413L331.627 211.618C331.627 211.618 322.278 209.768 322.784 208.413C323.291 207.058 333.066 205.754 333.066 205.754V151.144C332.982 151.023 331.695 149.415 328.17 148.39C327.487 148.192 326.793 148.033 326.09 147.917C325.486 147.83 324.899 147.656 324.347 147.399C322.25 146.337 324.567 144.486 327.821 144.403C328.331 144.386 328.841 144.415 329.345 144.491H352.955C352.955 144.491 361.894 146.959 362.327 159.272C362.759 171.587 362.327 208.413 362.327 208.413Z" fill="#3A3054"/>
<path d="M337.144 208.529L331.495 211.618C331.495 211.618 322.286 209.768 322.784 208.412C323.283 207.058 332.93 205.753 332.93 205.753V151.139C332.813 151.013 331.401 149.564 328.106 148.386C326.88 147.957 325.621 147.625 324.34 147.394C322.275 146.332 324.556 144.481 327.763 144.398C330.493 144.768 335.87 147.741 336.219 149.438C336.568 151.134 337.144 208.529 337.144 208.529Z" fill="#51466B"/>
<path d="M222.956 322.822C222.21 323.652 221.865 323.959 222.304 323.276C222.533 323.144 222.75 322.992 222.956 322.822Z" fill="url(#paint20_linear_109_24)"/>
</g>
<defs>
<linearGradient id="paint0_linear_109_24" x1="172.205" y1="770.954" x2="1102.63" y2="770.954" gradientUnits="userSpaceOnUse">
<stop stop-color="#183866"/>
<stop offset="1" stop-color="#1A7FC1"/>
</linearGradient>
<linearGradient id="paint1_linear_109_24" x1="194.383" y1="361.896" x2="702.546" y2="361.896" gradientUnits="userSpaceOnUse">
<stop/>
<stop offset="0.99" stop-opacity="0"/>
</linearGradient>
<linearGradient id="paint2_linear_109_24" x1="3479.09" y1="-4863.06" x2="5627.15" y2="-3839.11" gradientUnits="userSpaceOnUse">
<stop/>
<stop offset="0.99" stop-opacity="0"/>
</linearGradient>
<linearGradient id="paint3_linear_109_24" x1="489.875" y1="-13444.7" x2="193.667" y2="-13526.9" gradientUnits="userSpaceOnUse">
<stop/>
<stop offset="0.99" stop-opacity="0"/>
</linearGradient>
<linearGradient id="paint4_linear_109_24" x1="8619.06" y1="-579.788" x2="1352.94" y2="-2999" gradientUnits="userSpaceOnUse">
<stop/>
<stop offset="0.99" stop-opacity="0"/>
</linearGradient>
<linearGradient id="paint5_linear_109_24" x1="4216.24" y1="-27204.8" x2="3881.8" y2="-27312.5" gradientUnits="userSpaceOnUse">
<stop/>
<stop offset="0.99" stop-opacity="0"/>
</linearGradient>
<linearGradient id="paint6_linear_109_24" x1="5683.27" y1="-4291.85" x2="3342.51" y2="-3657.55" gradientUnits="userSpaceOnUse">
<stop/>
<stop offset="0.99" stop-opacity="0"/>
</linearGradient>
<linearGradient id="paint7_linear_109_24" x1="32364.4" y1="3358.79" x2="-10635.8" y2="1248.99" gradientUnits="userSpaceOnUse">
<stop/>
<stop offset="1" stop-opacity="0"/>
</linearGradient>
<linearGradient id="paint8_linear_109_24" x1="3288.51" y1="-1275.04" x2="25449.3" y2="-1275.04" gradientUnits="userSpaceOnUse">
<stop stop-color="#183866"/>
<stop offset="1" stop-color="#1A7FC1"/>
</linearGradient>
<linearGradient id="paint9_linear_109_24" x1="3266.58" y1="896.935" x2="3524.39" y2="1917.94" gradientUnits="userSpaceOnUse">
<stop/>
<stop offset="0.99" stop-opacity="0"/>
</linearGradient>
<linearGradient id="paint10_linear_109_24" x1="-705.546" y1="1024.32" x2="6486.45" y2="3369.86" gradientUnits="userSpaceOnUse">
<stop/>
<stop offset="0.99" stop-opacity="0"/>
</linearGradient>
<linearGradient id="paint11_linear_109_24" x1="1296.18" y1="635.894" x2="1244.94" y2="1036.88" gradientUnits="userSpaceOnUse">
<stop/>
<stop offset="0.99" stop-opacity="0"/>
</linearGradient>
<linearGradient id="paint12_linear_109_24" x1="8099.66" y1="-6846" x2="4349.61" y2="-6993.55" gradientUnits="userSpaceOnUse">
<stop/>
<stop offset="0.99" stop-opacity="0"/>
</linearGradient>
<linearGradient id="paint13_linear_109_24" x1="9287.45" y1="-2081.12" x2="6154.32" y2="-2190.28" gradientUnits="userSpaceOnUse">
<stop/>
<stop offset="0.99" stop-opacity="0"/>
</linearGradient>
<linearGradient id="paint14_linear_109_24" x1="3152.34" y1="757.192" x2="3042.12" y2="1312.54" gradientUnits="userSpaceOnUse">
<stop/>
<stop offset="0.99" stop-opacity="0"/>
</linearGradient>
<linearGradient id="paint15_linear_109_24" x1="91.0511" y1="-22923.5" x2="-162.258" y2="-21333.9" gradientUnits="userSpaceOnUse">
<stop/>
<stop offset="0.99" stop-opacity="0"/>
</linearGradient>
<linearGradient id="paint16_linear_109_24" x1="186.889" y1="3304.97" x2="3656.14" y2="3304.97" gradientUnits="userSpaceOnUse">
<stop stop-color="#ECC4D7"/>
<stop offset="0.42" stop-color="#EFD4D1"/>
<stop offset="1" stop-color="#F2EAC9"/>
</linearGradient>
<linearGradient id="paint17_linear_109_24" x1="3379" y1="-2228.37" x2="6593.16" y2="-2228.37" gradientUnits="userSpaceOnUse">
<stop stop-color="#ECC4D7"/>
<stop offset="0.42" stop-color="#EFD4D1"/>
<stop offset="1" stop-color="#F2EAC9"/>
</linearGradient>
<linearGradient id="paint18_linear_109_24" x1="3395.85" y1="-639.618" x2="5933.37" y2="-639.618" gradientUnits="userSpaceOnUse">
<stop stop-color="#ECC4D7"/>
<stop offset="0.42" stop-color="#EFD4D1"/>
<stop offset="1" stop-color="#F2EAC9"/>
</linearGradient>
<linearGradient id="paint19_linear_109_24" x1="17279.2" y1="9912.48" x2="5403.03" y2="17962.6" gradientUnits="userSpaceOnUse">
<stop stop-color="#362958" stop-opacity="0.501"/>
<stop offset="1" stop-color="#34313D" stop-opacity="0"/>
</linearGradient>
<linearGradient id="paint20_linear_109_24" x1="3596.16" y1="-28067.8" x2="3498.06" y2="-28104.7" gradientUnits="userSpaceOnUse">
<stop/>
<stop offset="0.99" stop-opacity="0"/>
</linearGradient>
<clipPath id="clip0_109_24">
<rect width="620" height="400" fill="white" transform="translate(0.5)"/>
</clipPath>
</defs>
</svg>
