<svg width="229" height="32" viewBox="0 0 229 32" fill="none" xmlns="http://www.w3.org/2000/svg">
<g clip-path="url(#clip0_109_210)">
<path d="M16.4897 7.86412C16.4217 7.77883 16.1837 7.61772 15.7757 7.3808C15.3677 7.14388 14.8577 6.89748 14.2457 6.63971C13.6337 6.38195 12.9647 6.1564 12.2397 5.96307C11.5319 5.77207 10.7996 5.67449 10.0637 5.67308C8.06869 5.67308 7.07169 6.30708 7.07169 7.57413C7.07169 7.96078 7.17869 8.28299 7.39469 8.54076C7.60969 8.79853 7.92669 9.02976 8.34669 9.23351C8.76569 9.43727 9.29269 9.62585 9.92669 9.79738L11.3327 10.1698L12.1377 10.3774C13.2937 10.6778 14.3357 11.0057 15.2657 11.3601C16.1947 11.7145 16.9827 12.1552 17.6287 12.6812C18.2731 13.2055 18.7845 13.8608 19.1247 14.5983C19.4747 15.3498 19.6517 16.252 19.6517 17.3049C19.6517 18.5938 19.3967 19.6836 18.8867 20.5753C18.3767 21.4662 17.7017 22.1864 16.8637 22.7342C16.0237 23.2819 15.0617 23.679 13.9737 23.9263C12.8857 24.1727 11.7637 24.2969 10.6077 24.2969C8.7659 24.287 6.9347 24.0321 5.16769 23.5397C4.28369 23.2933 3.42769 22.9976 2.60069 22.6536C1.79864 22.3233 1.03011 21.9243 0.304688 21.4614L2.75269 16.8538C2.84269 16.9609 3.13769 17.1656 3.63669 17.466C4.13469 17.7664 4.75269 18.0678 5.48969 18.3682C6.22569 18.6686 7.04769 18.9368 7.95469 19.1737C8.86069 19.4107 9.77869 19.5282 10.7087 19.5282C12.6807 19.5282 13.6667 18.9596 13.6667 17.8204C13.6667 17.3911 13.5187 17.0367 13.2247 16.7571C12.9297 16.4776 12.5217 16.2255 12.0007 16C11.5119 15.7926 11.0095 15.6153 10.4967 15.4692L8.79469 15.0001L7.81869 14.7272C6.70769 14.405 5.74469 14.0563 4.92869 13.68C4.11269 13.3038 3.43869 12.8688 2.90569 12.3751C2.38257 11.8947 1.97644 11.3119 1.71569 10.6674C1.45469 10.0229 1.32469 9.27142 1.32469 8.41188C1.32469 7.20832 1.56269 6.14597 2.03869 5.22198C2.49758 4.31892 3.15898 3.52168 3.97669 2.88595C4.81719 2.23983 5.78105 1.75303 6.81569 1.45211C7.89169 1.1299 9.03069 0.968796 10.2327 0.968796C11.0707 0.968796 11.8987 1.04461 12.7147 1.19434C13.5307 1.34502 14.3127 1.53835 15.0607 1.77432C15.8087 2.01124 16.5057 2.27944 17.1507 2.57985C17.7977 2.88027 18.3927 3.18163 18.9367 3.48204L16.4897 7.86412ZM39.9137 24.0391H34.4737V14.5339C34.4737 13.4384 34.2467 12.6328 33.7937 12.1173C33.3397 11.6018 32.7167 11.344 31.9237 11.344C31.6057 11.344 31.2607 11.4141 30.8867 11.5534C30.4933 11.7039 30.1264 11.9103 29.7987 12.1656C29.4363 12.4445 29.1107 12.7636 28.8287 13.1162C28.5317 13.4856 28.3018 13.8994 28.1487 14.3406V24.0391H22.7087V0.5177H28.1487V9.95849C28.7794 8.97289 29.6781 8.16607 30.7507 7.62246C31.8267 7.0747 33.0107 6.80082 34.3037 6.80082C35.5047 6.80082 36.4737 6.99983 37.2107 7.39691C37.9467 7.79494 38.5137 8.2991 38.9107 8.9113C39.3067 9.5235 39.5737 10.2106 39.7097 10.9735C39.8457 11.7363 39.9137 12.4822 39.9137 13.2128V24.0391ZM52.2537 24.3613C50.7347 24.3613 49.3807 24.1244 48.1907 23.6525C47.0007 23.1796 45.9977 22.5408 45.1807 21.7353C44.3663 20.9317 43.7358 19.9773 43.3287 18.9321C42.9084 17.8655 42.695 16.7357 42.6987 15.5972C42.6987 14.4372 42.9087 13.3256 43.3287 12.2623C43.7361 11.217 44.367 10.2626 45.1817 9.45906C45.9977 8.65353 47.0007 8.00911 48.1907 7.52579C49.3807 7.04248 50.7347 6.80082 52.2537 6.80082C53.7727 6.80082 55.1207 7.04248 56.2997 7.52579C57.4787 8.00911 58.4757 8.65353 59.2917 9.45906C60.1078 10.2647 60.7438 11.2181 61.1617 12.2623C61.5926 13.3266 61.8116 14.4573 61.8077 15.5972C61.8114 16.7357 61.598 17.8655 61.1777 18.9321C60.7706 19.9773 60.1401 20.9317 59.3257 21.7353C58.5097 22.5408 57.5057 23.1796 56.3157 23.6525C55.1257 24.1254 53.7727 24.3613 52.2537 24.3613ZM48.2747 15.5972C48.2747 16.9287 48.6487 17.9977 49.3967 18.8032C50.1447 19.6087 51.0967 20.0115 52.2527 20.0115C52.793 20.017 53.3276 19.9068 53.8167 19.6893C54.2927 19.4741 54.7067 19.1737 55.0567 18.7871C55.4246 18.3733 55.7075 17.8979 55.8907 17.3855C56.0995 16.8102 56.203 16.2054 56.1967 15.5972C56.1967 14.2657 55.8227 13.1967 55.0747 12.3912C54.3267 11.5857 53.3857 11.1829 52.2527 11.1829C51.7138 11.1788 51.1805 11.2862 50.6899 11.4977C50.1994 11.7092 49.7635 12.0196 49.4127 12.4073C49.0455 12.8212 48.7633 13.2966 48.5807 13.8089C48.3719 14.3841 48.2684 14.9889 48.2747 15.5972ZM76.0507 11.5373C74.7357 11.5591 73.5457 11.7629 72.4807 12.1495C71.4157 12.5362 70.6447 13.1162 70.1687 13.8895V24.0391H64.7287V7.12303H69.7267V10.5385C70.3387 9.40031 71.1267 8.50854 72.0897 7.86412C73.0527 7.21969 74.0787 6.88706 75.1667 6.86526H75.7107C75.8237 6.86526 75.9377 6.87569 76.0507 6.89748V11.5373ZM90.1247 23.1369C89.2883 23.4667 88.431 23.7465 87.5577 23.9747C86.5947 24.2324 85.6257 24.3613 84.6507 24.3613C83.9707 24.3613 83.3307 24.2808 82.7307 24.1197C82.1521 23.9697 81.6131 23.7062 81.1487 23.3464C80.6957 22.9919 80.3387 22.5247 80.0787 21.9447C79.8167 21.3648 79.6867 20.6663 79.6867 19.8504V11.0218H77.4087V7.12303H79.6867V1.7421H85.1267V7.12303H88.7647V11.0218H85.1267V18.0782C85.1267 18.6373 85.2737 19.0392 85.5687 19.2865C85.8637 19.5329 86.2377 19.657 86.6907 19.657C87.0987 19.657 87.5177 19.5926 87.9487 19.4637C88.3787 19.3348 88.7537 19.1955 89.0707 19.0448L90.1247 23.1369ZM92.4017 0.5177H97.8417V18.0138C97.8417 19.3026 98.4197 19.947 99.5757 19.947C99.8477 19.947 100.148 19.9091 100.477 19.8343C100.806 19.7584 101.107 19.6466 101.378 19.4959L102.092 23.3625C101.412 23.6629 100.63 23.8998 99.7457 24.0713C98.8617 24.2429 98.0347 24.3291 97.2637 24.3291C95.6997 24.3291 94.4987 23.9425 93.6597 23.1692C92.8207 22.3958 92.4017 21.2785 92.4017 19.8182V0.5177ZM103.858 26.5846C104.312 26.7353 104.737 26.8424 105.133 26.9068C105.486 26.9675 105.844 26.9998 106.204 27.0035C106.862 27.0035 107.372 26.7883 107.734 26.359C108.097 25.9297 108.426 25.1555 108.72 24.0391L101.92 7.12303H107.53L111.678 19.6248L115.248 7.12303H120.348L113.548 26.7779C113.099 28.1382 112.206 29.3284 110.998 30.1772C109.774 31.0472 108.324 31.4822 106.646 31.4822C106.184 31.4815 105.724 31.4438 105.269 31.3694C104.787 31.2897 104.315 31.1656 103.859 30.9989L103.858 26.5846Z" fill="white"/>
</g>
<defs>
<clipPath id="clip0_109_210">
<rect width="228" height="30.9645" fill="white" transform="translate(0.304688 0.5177)"/>
</clipPath>
</defs>
</svg>
